<svg width="16" height="16" viewBox="0 0 16 16" fill="none" xmlns="http://www.w3.org/2000/svg">
<circle cx="11.6713" cy="9.7932" r="2.3532" fill="#E0E0E0"/>
<path fill-rule="evenodd" clip-rule="evenodd" d="M8.3723 13.8297C8.24259 14.1696 8.52169 14.4996 8.88548 14.4996H14.457C14.8208 14.4996 15.0999 14.1696 14.9702 13.8297C14.4633 12.5015 13.1775 11.5581 11.6713 11.5581C10.165 11.5581 8.87916 12.5015 8.3723 13.8297Z" fill="#E0E0E0"/>
<circle cx="4.33125" cy="9.7932" r="2.3532" fill="#E0E0E0"/>
<path fill-rule="evenodd" clip-rule="evenodd" d="M1.0323 13.8297C0.902593 14.1696 1.18169 14.4996 1.54548 14.4996H7.11703C7.48082 14.4996 7.75991 14.1696 7.63021 13.8297C7.12335 12.5015 5.83747 11.5581 4.33125 11.5581C2.82503 11.5581 1.53916 12.5015 1.0323 13.8297Z" fill="#E0E0E0"/>
<g clip-path="url(#clip0_64_242)">
<path fill-rule="evenodd" clip-rule="evenodd" d="M7.45312 7.5625C7.33231 7.5625 7.23438 7.46456 7.23438 7.34375V6.897C7.09983 6.85406 6.97021 6.80011 6.84656 6.7362L6.53054 7.05221C6.44512 7.13764 6.30661 7.13764 6.22118 7.05221L5.44779 6.27882C5.36236 6.19339 5.36236 6.05488 5.44779 5.96946L5.7638 5.65344C5.69989 5.5298 5.64594 5.40017 5.603 5.26562H5.15625C5.03544 5.26562 4.9375 5.16769 4.9375 5.04688V3.95312C4.9375 3.83231 5.03544 3.73438 5.15625 3.73438H5.603C5.64594 3.59983 5.6999 3.4702 5.7638 3.34656L5.44779 3.03054C5.36236 2.94511 5.36236 2.80661 5.44779 2.72118L6.22118 1.94778C6.30661 1.86235 6.44512 1.86235 6.53054 1.94778L6.84656 2.2638C6.97021 2.19989 7.09983 2.14594 7.23437 2.103V1.65625C7.23437 1.53544 7.33231 1.4375 7.45312 1.4375H8.54687C8.66769 1.4375 8.76562 1.53544 8.76562 1.65625V2.103C8.90017 2.14594 9.02979 2.19989 9.15344 2.2638L9.46946 1.94779C9.55488 1.86236 9.69339 1.86236 9.77882 1.94779L10.5522 2.72118C10.6376 2.80661 10.6376 2.94512 10.5522 3.03054L10.2362 3.34656C10.3001 3.47021 10.3541 3.59983 10.397 3.73438H10.8438C10.9646 3.73438 11.0625 3.83231 11.0625 3.95312V5.04688C11.0625 5.16769 10.9646 5.26562 10.8438 5.26562H10.397C10.3541 5.40017 10.3001 5.52979 10.2362 5.65344L10.5522 5.96945C10.6376 6.05488 10.6376 6.19338 10.5522 6.27881L9.77882 7.05221C9.69339 7.13764 9.55488 7.13764 9.46946 7.05221L9.15344 6.7362C9.0298 6.8001 8.90017 6.85406 8.76562 6.897V7.34375C8.76562 7.46456 8.66769 7.5625 8.54688 7.5625H7.45312ZM8 5.48438C8.54366 5.48438 8.98438 5.04366 8.98438 4.5C8.98438 3.95634 8.54366 3.51562 8 3.51562C7.45634 3.51562 7.01562 3.95634 7.01562 4.5C7.01562 5.04366 7.45634 5.48438 8 5.48438Z" fill="#E0E0E0"/>
</g>
<defs>
<clipPath id="clip0_64_242">
<rect width="7" height="7" fill="white" transform="translate(4.5 1)"/>
</clipPath>
</defs>
</svg>
